<?xml version="1.0" encoding="UTF-8" standalone="no"?>
<svg width="118px" height="117px" viewBox="0 0 118 117" version="1.1" xmlns="http://www.w3.org/2000/svg" xmlns:xlink="http://www.w3.org/1999/xlink">
    <!-- Generator: Sketch 40.2 (33826) - http://www.bohemiancoding.com/sketch -->
    <title>single-border-icon</title>
    <desc>Created with Sketch.</desc>
    <defs>
        <polygon id="path-1" points="0.000151980921 116.468458 116.687405 116.468458 116.687405 0.33629637 0.000151980921 0.33629637"></polygon>
    </defs>
    <g id="Rug-builder" stroke="none" stroke-width="1" fill="none" fill-rule="evenodd">
        <g id="rug-builder-master" transform="translate(-2511.000000, -687.000000)">
            <g id="single-border-icon" transform="translate(2511.000000, 687.000000)">
                <g id="Group-3" transform="translate(0.487345, 0.487345)">
                    <mask id="mask-2" fill="white">
                        <use xlink:href="#path-1"></use>
                    </mask>
                    <g id="Clip-2"></g>
                    <path d="M116.687557,58.4022764 C116.687557,90.4714377 90.5660895,116.468609 58.3436012,116.468609 C26.1216195,116.468609 0.000151980921,90.4714377 0.000151980921,58.4022764 C0.000151980921,26.333115 26.1216195,0.335943435 58.3436012,0.335943435 C90.5660895,0.335943435 116.687557,26.333115 116.687557,58.4022764" id="Fill-1" fill="#383838" mask="url(#mask-2)"></path>
                </g>
                <path d="M95.5645403,84.6701437 C93.7250645,81.1039905 91.1763445,79.889895 89.7629219,79.4814992 L89.7629219,38.4079647 C89.8966651,37.9420908 90.9478665,34.8508869 95.5645403,33.426039 L95.5645403,84.6701437 Z M22.0184395,85.7546617 C22.4085239,84.6071197 23.6608467,82.1476689 27.4517575,80.654755 L89.7629219,80.654755 L89.7629219,80.6199657 C91.090222,81.0767641 93.3167424,82.3337159 94.8775865,85.7546617 L22.0184395,85.7546617 Z M21.7950276,33.6448585 C26.1097659,35.2370983 26.9233705,38.3162016 26.9598459,38.4644342 L27.1092938,38.4291408 L27.1092938,79.6201521 C24.24496,80.7303839 22.6613188,82.3518668 21.7950276,83.7141948 L21.7950276,33.6448585 Z M27.9573473,79.653933 L88.7497158,79.653933 L88.7497158,38.6882957 L27.9573473,38.6882957 L27.9573473,79.653933 Z M94.3507193,32.6929431 C90.508135,34.1742606 89.1970463,36.7758937 88.8181072,37.7928499 L27.8889559,37.7928499 C27.5105234,36.7758937 26.1989281,34.1742606 22.3563438,32.6929431 L94.3507193,32.6929431 Z M19.3304036,88.207558 L98.0291642,88.207558 L98.0291642,30.2395426 L19.3304036,30.2395426 L19.3304036,88.207558 Z" id="Fill-4" fill="#FEFEFE"></path>
            </g>
        </g>
    </g>
</svg>