<?xml version="1.0" encoding="UTF-8" standalone="no"?>
<svg width="116px" height="117px" viewBox="0 0 116 117" version="1.1" xmlns="http://www.w3.org/2000/svg" xmlns:xlink="http://www.w3.org/1999/xlink">
    <!-- Generator: Sketch 40.2 (33826) - http://www.bohemiancoding.com/sketch -->
    <title>single-piping-icon</title>
    <desc>Created with Sketch.</desc>
    <defs>
        <polygon id="path-1" points="0.000150852273 116.573478 115.820855 116.573478 115.820855 0.336599609 0.000150852273 0.336599609"></polygon>
        <polygon id="path-3" points="0 116.741525 115.820855 116.741525 115.820855 0.504647091 0 0.504647091"></polygon>
    </defs>
    <g id="Rug-builder" stroke="none" stroke-width="1" fill="none" fill-rule="evenodd">
        <g id="rug-builder-master" transform="translate(-2801.000000, -687.000000)">
            <g id="single-piping-icon" transform="translate(2801.000000, 687.000000)">
                <g id="Group-3" transform="translate(0.000000, 0.168047)">
                    <mask id="mask-2" fill="white">
                        <use xlink:href="#path-1"></use>
                    </mask>
                    <g id="Clip-2"></g>
                    <path d="M115.821006,58.4549378 C115.821006,90.553016 89.893523,116.573629 57.910327,116.573629 C25.9276338,116.573629 0.000150852273,90.553016 0.000150852273,58.4549378 C0.000150852273,26.3568596 25.9276338,0.336246356 57.910327,0.336246356 C89.893523,0.336246356 115.821006,26.3568596 115.821006,58.4549378" id="Fill-1" fill="#404041" mask="url(#mask-2)"></path>
                </g>
                <path d="M94.5212685,84.0923726 C92.6954531,80.5230037 90.1656605,79.3078135 88.7627344,78.8990494 L88.7627344,37.7884788 C88.8954844,37.3221849 89.9388793,34.2281936 94.5212685,32.8020609 L94.5212685,84.0923726 Z M21.5213395,85.1778685 C21.908527,84.0292917 23.1515497,81.5676232 26.9143082,80.0733631 L88.7627344,80.0733631 L88.7627344,80.0385425 C90.0801776,80.4957528 92.2901634,81.753838 93.8394162,85.1778685 L21.5213395,85.1778685 Z M21.2995866,33.0210777 C25.5822827,34.6147532 26.3898452,37.696633 26.4260497,37.8449993 L26.5743878,37.809674 L26.5743878,79.0378273 C23.7313253,80.1490602 22.1594446,81.7720053 21.2995866,83.1355617 L21.2995866,33.0210777 Z M27.4161435,79.0716387 L87.7570526,79.0716387 L87.7570526,38.0690626 L27.4161435,38.0690626 L27.4161435,79.0716387 Z M93.3164616,32.068304 C89.5024134,33.5509572 88.2010611,36.1549362 87.8249361,37.1728093 L27.3482599,37.1728093 C26.9726378,36.1549362 25.6707827,33.5509572 21.8567344,32.068304 L93.3164616,32.068304 Z M18.8532656,87.6329766 L96.9675895,87.6329766 L96.9675895,29.6126913 L18.8532656,29.6126913 L18.8532656,87.6329766 Z" id="Fill-4" fill="#FEFEFE"></path>
                <mask id="mask-4" fill="white">
                    <use xlink:href="#path-3"></use>
                </mask>
                <g id="Clip-7"></g>
                <path d="M29.2794205,77.345241 L85.6317955,77.345241 L85.6317955,39.9519009 L29.2794205,39.9519009 L29.2794205,77.345241 Z M30.8402386,75.7798257 L84.071983,75.7798257 L84.071983,41.5178208 L30.8402386,41.5178208 L30.8402386,75.7798257 Z" id="Fill-6" fill="#FEFEFE" mask="url(#mask-4)"></path>
            </g>
        </g>
    </g>
</svg>