<?xml version="1.0" encoding="UTF-8"?>
<svg width="74px" height="102px" viewBox="0 0 74 102" version="1.1" xmlns="http://www.w3.org/2000/svg" xmlns:xlink="http://www.w3.org/1999/xlink">
    <!-- Generator: sketchtool 51.2 (57519) - http://www.bohemiancoding.com/sketch -->
    <title>B01BAB83-CBB2-4904-B9AB-59E935AA63E2</title>
    <desc>Created with sketchtool.</desc>
    <defs>
        <polygon id="path-1" points="100.396987 73.5616319 100.396987 0 0 0 2.2872929e-15 73.5616319"></polygon>
    </defs>
    <g id="--Rug-Builder" stroke="none" stroke-width="1" fill="none" fill-rule="evenodd">
        <g id="rug-builder-2---select-part" transform="translate(-254.000000, -710.000000)">
            <g id="Group-39" transform="translate(0.000000, 663.000000)">
                <g id="centre-icon" transform="translate(253.000000, 47.000000)">
                    <g id="Page-1" opacity="0.231194196" transform="translate(37.700717, 51.335924) rotate(-270.000000) translate(-37.700717, -51.335924) translate(-12.799283, 14.335924)">
                        <mask id="mask-2" fill="white">
                            <use xlink:href="#path-1"></use>
                        </mask>
                        <g id="Clip-2" transform="translate(50.198494, 36.780816) rotate(-360.000000) translate(-50.198494, -36.780816) "></g>
                        <path d="M89.8516392,62.48823 L89.8516392,10.3657586 C90.0216108,9.77456294 91.3632878,5.85181336 97.2528359,4.04367597 L97.2528359,69.0726397 C94.9061938,64.5465378 91.6541137,63.0064859 89.8516392,62.48823 L89.8516392,62.48823 Z M10.360512,63.9770961 L89.8516392,63.9770961 L89.8516392,63.9329484 C91.5442461,64.5126273 94.3852923,66.1077039 96.3758342,70.4488971 L3.42851453,70.4488971 C3.92615,68.9926619 5.52440003,65.8716095 10.360512,63.9770961 L10.360512,63.9770961 Z M9.73232804,10.4374187 L9.92298059,10.3926311 L9.92298059,62.6641811 C6.26956068,64.0730694 4.24928992,66.1307375 3.1441514,67.8588971 L3.1441514,4.32135878 C8.64851676,6.34191712 9.68579589,10.249311 9.73232804,10.4374187 L9.73232804,10.4374187 Z M88.6463274,9.58517558 L53.7517402,9.58517558 L53.6573833,9.49112173 L53.5623802,9.58517558 L10.9182515,9.58517558 C10.4354805,8.29465431 8.76226201,4.99317204 3.86022946,3.11337457 L95.7043494,3.11337457 C90.8023169,4.99317204 89.1290984,8.29465431 88.6463274,9.58517558 L88.6463274,9.58517558 Z M88.4569674,54.3727259 L88.4569674,62.5957201 L80.1509789,62.5957201 L88.4569674,54.3727259 Z M88.4569674,44.3742252 L88.4569674,52.6375282 L88.3470998,52.5287584 L78.1785329,62.5957201 L70.0515639,62.5957201 L88.4569674,44.3742252 Z M88.4569674,32.4191484 L88.4569674,42.421488 L68.0791179,62.5957201 L57.9758252,62.5957201 L88.4569674,32.4191484 Z M88.4569674,21.5511294 L88.4569674,30.467051 L56.0033791,62.5957201 L46.9974696,62.5957201 L88.4569674,21.5511294 Z M87.2930174,10.9659118 L88.4569674,10.9659118 L88.4569674,19.8159317 L88.3470998,19.7071619 L45.0941755,62.527899 L45.1633275,62.5957201 L35.1421123,62.5957201 L87.2930174,10.9659118 Z M75.6561027,10.9659118 L85.3205713,10.9659118 L33.1696663,62.5957201 L23.5051976,62.5957201 L75.6561027,10.9659118 Z M64.4547805,10.9659118 L73.6836566,10.9659118 L21.5333978,62.5957201 L12.3038755,62.5957201 L64.4547805,10.9659118 Z M11.3176525,19.2375325 L11.3176525,10.9659118 L19.6734045,10.9659118 L11.3176525,19.2375325 Z M11.3176525,29.2360332 L11.3176525,21.1902697 L21.6452042,10.9659118 L29.7721732,10.9659118 L11.3176525,29.2360332 Z M11.3176525,39.8871525 L11.3176525,31.1887704 L31.7446192,10.9659118 L40.5307936,10.9659118 L11.3176525,39.8871525 Z M11.3176525,51.4071502 L11.3176525,41.8398897 L42.5025934,10.9659118 L52.1677083,10.9659118 L11.3176525,51.4071502 Z M62.4823345,10.9659118 L11.3176525,61.6199913 L11.3176525,53.3592476 L54.1401544,10.9659118 L62.4823345,10.9659118 Z M0,73.5616319 L100.396987,73.5616319 L100.396987,0 L0,0 L0,73.5616319 Z" id="Fill-1" fill="#1C1D1C" mask="url(#mask-2)"></path>
                    </g>
                    <rect id="Rectangle-10" fill="#000000" x="10.4564409" y="10.4825248" width="54.9342006" height="81.1064146"></rect>
                </g>
            </g>
        </g>
    </g>
</svg>