<?xml version="1.0" encoding="UTF-8"?>
<svg width="77px" height="100px" viewBox="0 0 77 100" version="1.1" xmlns="http://www.w3.org/2000/svg" xmlns:xlink="http://www.w3.org/1999/xlink">
    <!-- Generator: sketchtool 51.2 (57519) - http://www.bohemiancoding.com/sketch -->
    <title>E580F90E-3EC1-43C5-948A-C25F99EB29A7</title>
    <desc>Created with sketchtool.</desc>
    <defs>
        <polygon id="path-1" points="86.7160279 64.9453247 86.7160279 0.733022155 0.325783972 0.733022155 0.325783972 64.9453247"></polygon>
    </defs>
    <g id="--Rug-Builder" stroke="none" stroke-width="1" fill="none" fill-rule="evenodd">
        <g id="rug-builder-2---select-part" transform="translate(-830.000000, -711.000000)">
            <g id="Group-39" transform="translate(0.000000, 663.000000)">
                <g id="inner-border-icon" transform="translate(830.000000, 48.000000)">
                    <g id="Group-15">
                        <g id="Group-11">
                            <g id="Group-10-Copy" transform="translate(5.682109, 5.442806)">
                                <g id="Group-9-Copy" transform="translate(0.596745, 0.606909)" opacity="0.231194196">
                                    <g id="Page-1" transform="translate(32.560421, 43.927154) rotate(-270.000000) translate(-32.560421, -43.927154) translate(-10.939579, 11.427154)">
                                        <mask id="mask-2" fill="white">
                                            <use xlink:href="#path-1"></use>
                                        </mask>
                                        <g id="Clip-2" transform="translate(43.520906, 32.839173) rotate(-360.000000) translate(-43.520906, -32.839173) "></g>
                                        <path d="M77.4183229,55.132261 L77.4183229,9.9324281 C77.5636228,9.419752 78.7105528,6.01800184 83.7452219,4.45001195 L83.7452219,60.8421632 C81.7391994,56.9171949 78.9591648,55.5816848 77.4183229,55.132261 L77.4183229,55.132261 Z M9.46548225,56.4233836 L77.4183229,56.4233836 L77.4183229,56.3850993 C78.8652447,56.8877882 81.2939076,58.2710149 82.9955186,62.0356333 L3.53967721,62.0356333 C3.96507996,60.7728077 5.33134099,58.0662774 9.46548225,56.4233836 L9.46548225,56.4233836 Z M8.92848034,9.99457065 L9.09145931,9.95573156 L9.09145931,55.2848431 C5.96834017,56.5066102 4.24131551,58.2909893 3.29658992,59.7896237 L3.29658992,4.69081436 C8.0019863,6.44301254 8.88870242,9.83144644 8.92848034,9.99457065 L8.92848034,9.99457065 Z M76.3879643,9.2555181 L46.558392,9.2555181 L46.4777313,9.17395599 L46.396518,9.2555181 L9.94226481,9.2555181 C9.5295689,8.13639722 8.09922121,5.27340084 3.9087279,3.6432684 L82.4215012,3.6432684 C78.2310079,5.27340084 76.8006602,8.13639722 76.3879643,9.2555181 L76.3879643,9.2555181 Z M76.2260902,48.0946164 L76.2260902,55.2254748 L69.1257316,55.2254748 L76.2260902,48.0946164 Z M76.2260902,39.4240651 L76.2260902,46.5898787 L76.1321701,46.4955552 L67.4395898,55.2254748 L60.4922657,55.2254748 L76.2260902,39.4240651 Z M76.2260902,29.0568001 L76.2260902,37.7306804 L58.8061239,55.2254748 L50.1693432,55.2254748 L76.2260902,29.0568001 Z M76.2260902,19.6322155 L76.2260902,27.3639702 L48.4832014,55.2254748 L40.7845166,55.2254748 L76.2260902,19.6322155 Z M75.2310898,10.452872 L76.2260902,10.452872 L76.2260902,18.1274778 L76.1321701,18.0331543 L39.1574892,55.1666613 L39.2166036,55.2254748 L30.6499867,55.2254748 L75.2310898,10.452872 Z M65.2832951,10.452872 L73.544948,10.452872 L28.9638449,55.2254748 L20.702192,55.2254748 L65.2832951,10.452872 Z M55.707866,10.452872 L63.5971533,10.452872 L19.0166027,55.2254748 L11.1267629,55.2254748 L55.707866,10.452872 Z M10.283692,17.6258986 L10.283692,10.452872 L17.4265908,10.452872 L10.283692,17.6258986 Z M10.283692,26.2964499 L10.283692,19.3192833 L19.1121802,10.452872 L26.0595043,10.452872 L10.283692,26.2964499 Z M10.283692,35.5329423 L10.283692,27.9898346 L27.7456461,10.452872 L35.2564907,10.452872 L10.283692,35.5329423 Z M10.283692,45.5229132 L10.283692,37.226327 L36.94208,10.452872 L45.2042854,10.452872 L10.283692,45.5229132 Z M54.0217242,10.452872 L10.283692,54.3793373 L10.283692,47.215743 L46.8904272,10.452872 L54.0217242,10.452872 Z M0.608818011,64.7349506 L86.4329938,64.7349506 L86.4329938,0.943396226 L0.608818011,0.943396226 L0.608818011,64.7349506 Z" id="Fill-1" fill="#1C1D1C" mask="url(#mask-2)"></path>
                                    </g>
                                </g>
                                <rect id="Rectangle-16" fill="#000000" x="54.0321769" y="2.49370188" width="9.42857143" height="84.1269841"></rect>
                                <rect id="Rectangle-16-Copy" fill="#000000" x="2.17503404" y="2.49370188" width="9.42857143" height="84.1269841"></rect>
                                <rect id="Rectangle-16" fill="#000000" x="2.17503404" y="77.0968765" width="61.2857143" height="9.52380952"></rect>
                                <rect id="Rectangle-16-Copy-2" fill="#000000" x="2.17503404" y="2.49370188" width="61.2857143" height="9.52380952"></rect>
                                <path d="M54.0845304,77.1489837 L63.9894174,87.1539201" id="Path-16" stroke="#FFFFFF"></path>
                                <path d="M54.0845304,0.958507554 L63.9894174,10.9634439" id="Path-16-Copy-2" stroke="#FFFFFF" transform="translate(59.532177, 6.461956) scale(1, -1) translate(-59.532177, -6.461956) "></path>
                                <path d="M0.655958957,77.1489837 L10.0653905,86.65346" id="Path-16-Copy" stroke="#FFFFFF" transform="translate(6.103605, 82.652432) scale(-1, 1) translate(-6.103605, -82.652432) "></path>
                                <path d="M0.655958957,0.958507554 L10.0653905,10.4629838" id="Path-16-Copy-3" stroke="#FFFFFF" transform="translate(6.103605, 6.461956) scale(-1, -1) translate(-6.103605, -6.461956) "></path>
                            </g>
                            <rect id="Rectangle-18" stroke="#CBCBCB" x="0.5" y="0.5" width="76" height="99"></rect>
                            <path d="M68.4899854,91.0351021 L75.9365234,98.5568576" id="Path-18" stroke="#979797"></path>
                            <path d="M0.918556848,91.0351021 L8.36509487,98.5568576" id="Path-18-Copy-2" stroke="#979797" transform="translate(4.714286, 95.238095) scale(-1, 1) translate(-4.714286, -95.238095) "></path>
                            <path d="M0.918556848,0.558911589 L8.36509487,8.08066716" id="Path-18-Copy-3" stroke="#979797"></path>
                            <path d="M68.4899854,0.558911589 L75.9365234,8.08066716" id="Path-18-Copy" stroke="#979797" transform="translate(72.285714, 4.761905) scale(1, -1) translate(-72.285714, -4.761905) "></path>
                        </g>
                    </g>
                </g>
            </g>
        </g>
    </g>
</svg>