<?xml version="1.0" encoding="UTF-8"?>
<svg width="24px" height="27px" viewBox="0 0 24 27" version="1.1" xmlns="http://www.w3.org/2000/svg" xmlns:xlink="http://www.w3.org/1999/xlink">
    <!-- Generator: sketchtool 51.2 (57519) - http://www.bohemiancoding.com/sketch -->
    <title>2158BE87-8C1D-4A56-A2C1-574B6F0E2C5D</title>
    <desc>Created with sketchtool.</desc>
    <defs></defs>
    <g id="--Rug-Builder" stroke="none" stroke-width="1" fill="none" fill-rule="evenodd">
        <g id="rug-builder-2---select-part" transform="translate(-32.000000, -105.000000)" fill="#1F201F" fill-rule="nonzero">
            <g id="Group-7-Copy-2" transform="translate(20.000000, 97.000000)">
                <g id="Builder-nav-Copy" transform="translate(70.500000, 21.000000) rotate(-180.000000) translate(-70.500000, -21.000000) ">
                    <g id="zoom-window" transform="translate(117.261719, 20.500000) rotate(-180.000000) translate(-117.261719, -20.500000) translate(105.761719, 7.000000)">
                        <g id="Group">
                            <path d="M1.38066378,25.4942359 L21.4002886,25.4942359 L21.4002886,1.34180189 L1.38066378,1.34180189 L1.38066378,25.4942359 Z M0,0 L22.7809524,0 L22.7809524,26.8360378 L0,26.8360378 L0,0 Z" id="Rectangle-12"></path>
                            <path d="M5.52265512,26.1651369 L22.0906205,26.1651369 L22.0906205,6.03810851 L5.52265512,6.03810851 L5.52265512,26.1651369 Z M4.83232323,5.36720757 L22.7809524,5.36720757 L22.7809524,26.8360378 L4.83232323,26.8360378 L4.83232323,5.36720757 Z" id="Rectangle-12"></path>
                            <path d="M0.70915351,1.58304833 C0.84355973,1.6296618 1.09060203,1.73455566 1.41241953,1.90457723 C1.95302465,2.19018797 2.49419837,2.55468029 2.99861518,3.00428188 C3.89260557,3.8011219 4.57184994,4.77663776 4.95356604,5.94928606 L5.61174781,5.74692847 C5.19142787,4.45568754 4.44401521,3.38226986 3.46522156,2.5098422 C2.9166826,2.02091324 2.32968943,1.62556052 1.74212767,1.3151418 C1.38704503,1.1275457 1.10760945,1.00889769 0.941171165,0.951175166 L0.70915351,1.58304833 Z" id="Path-3"></path>
                            <polygon id="Path-4" points="17.359394 5.93985734 21.8897 10.3426477 22.3778384 9.86824909 17.8475324 5.46545873"></polygon>
                            <polygon id="Path-4-Copy" points="14.4685039 5.81394157 21.8897 13.0262515 22.3778384 12.5518529 14.9566422 5.33954297"></polygon>
                            <polygon id="Path-4-Copy-2" points="12.0296911 6.12737849 21.8897 15.7098553 22.3778384 15.2354567 12.5178295 5.65297989"></polygon>
                            <polygon id="Path-4-Copy-3" points="9.07541134 5.93985734 21.8897 18.393459 22.3778384 17.9190604 9.5635497 5.46545873"></polygon>
                            <polygon id="Path-4-Copy-4" points="6.29879307 5.92499703 21.8897 21.0770628 22.3778384 20.6026642 6.78693143 5.45059842"></polygon>
                            <polygon id="Path-4-Copy-5" points="4.93342 7.28165923 21.8897 23.7606666 22.3778384 23.286268 5.42155836 6.80726063"></polygon>
                            <polygon id="Path-4-Copy-6" points="4.93342 9.96526302 21.8897 26.4442704 22.3778384 25.9698718 5.42155836 9.49086441"></polygon>
                            <polygon id="Path-4-Copy-7" points="4.93342 12.6488668 19.4303897 26.7377867 19.9185281 26.2633881 5.42155836 12.1744682"></polygon>
                            <polygon id="Path-4-Copy-8" points="4.93342 15.3324706 15.9787302 26.0668857 16.4668686 25.5924871 5.42155836 14.858072"></polygon>
                            <polygon id="Path-4-Copy-9" points="4.93342 18.0160744 13.9077346 26.7377867 14.3958729 26.2633881 5.42155836 17.5416758"></polygon>
                            <polygon id="Path-4-Copy-10" points="4.93342 20.6996781 10.4990536 26.1086545 10.987192 25.6342559 5.42155836 20.2252795"></polygon>
                            <polygon id="Path-4-Copy-11" points="4.93342 23.3832819 8.46456473 26.7273041 8.95270309 26.2529055 5.42155836 22.9088833"></polygon>
                        </g>
                    </g>
                </g>
            </g>
        </g>
    </g>
</svg>