<?xml version="1.0" encoding="UTF-8" standalone="no"?>
<svg width="213px" height="268px" viewBox="0 0 213 268" version="1.1" xmlns="http://www.w3.org/2000/svg" xmlns:xlink="http://www.w3.org/1999/xlink">
    <!-- Generator: Sketch 41.2 (35397) - http://www.bohemiancoding.com/sketch -->
    <title>Page 1</title>
    <desc>Created with Sketch.</desc>
    <defs></defs>
    <g id="Home" stroke="none" stroke-width="1" fill="none" fill-rule="evenodd">
        <g id="Home-4" transform="translate(-966.000000, -6203.000000)" fill="#4C4C4C">
            <g id="Page-1" transform="translate(966.000000, 6203.000000)">
                <polygon id="Fill-1" points="198.741028 15.1711377 198.741028 16.1588137 211.336428 16.1588137 211.336428 266.913306 13.3032282 266.913306 13.3032282 267.900982 212.324581 267.900982 212.324581 15.1711377"></polygon>
                <path d="M0,253.5639 L199.515012,253.5639 L199.515012,0.834056075 L0,0.834056075 L0,253.5639 Z M0.988152941,252.576224 L198.527694,252.576224 L198.527694,1.82173209 L0.988152941,1.82173209 L0.988152941,252.576224 Z" id="Fill-2"></path>
                <polygon id="Fill-3" points="40.0014 41.8046604 166.921 41.8046604 166.921 40.8169844 40.0014 40.8169844"></polygon>
                <polygon id="Fill-4" points="40.0014 69.4462305 166.921 69.4462305 166.921 68.4585545 40.0014 68.4585545"></polygon>
                <polygon id="Fill-5" points="0.133814118 253.812614 12.9397082 267.740265 13.6672494 267.073188 0.861355294 253.144702"></polygon>
                <polygon id="Fill-6" points="205.081829 260.929642 15.5327118 260.929642 15.5327118 259.941966 204.093676 259.941966 204.093676 24.7189508 205.081829 24.7189508"></polygon>
            </g>
        </g>
    </g>
</svg>