<?xml version="1.0" encoding="UTF-8" standalone="no"?>
<svg width="228px" height="279px" viewBox="0 0 228 279" version="1.1" xmlns="http://www.w3.org/2000/svg" xmlns:xlink="http://www.w3.org/1999/xlink">
    <!-- Generator: Sketch 41.2 (35397) - http://www.bohemiancoding.com/sketch -->
    <title>Location</title>
    <desc>Created with Sketch.</desc>
    <defs></defs>
    <g id="Home" stroke="none" stroke-width="1" fill="none" fill-rule="evenodd">
        <g id="Home-4" transform="translate(-157.000000, -6151.000000)" stroke="#4C4C4C">
            <g id="Section---2-Col" transform="translate(0.000000, 5781.000000)">
                <g id="Left">
                    <g id="Location" transform="translate(158.000000, 371.000000)">
                        <path d="M225.806661,104.416785 C225.807896,104.619369 225.808514,104.822089 225.808514,105.024944 L225.798428,105.024944 C224.702409,163.11425 134.607993,276.945248 116.186253,276.945248 C97.7645137,276.945248 1.18576446,163.11425 0.0108124628,105.024936 L0,105.024944 C0,104.819079 0.000636748403,104.613352 0.00190851311,104.407764 C0.000637140516,104.259496 2.83491109e-14,104.111603 2.84217094e-14,103.964086 C0.617501032,46.4490228 50.9295495,0 112.904257,0 C174.878965,0 225.191013,46.4490228 225.802873,103.964086 C225.808514,104.114595 225.807895,104.265494 225.806661,104.416781 Z" id="Combined-Shape"></path>
                        <ellipse id="Combined-Shape" cx="113.264764" cy="91.6089011" rx="43.5569722" ry="40.3126048"></ellipse>
                    </g>
                </g>
            </g>
        </g>
    </g>
</svg>