<?xml version="1.0" encoding="UTF-8" standalone="no"?>
<svg width="117px" height="117px" viewBox="0 0 117 117" version="1.1" xmlns="http://www.w3.org/2000/svg" xmlns:xlink="http://www.w3.org/1999/xlink">
    <!-- Generator: Sketch 40.2 (33826) - http://www.bohemiancoding.com/sketch -->
    <title>double-border-icon</title>
    <desc>Created with Sketch.</desc>
    <defs>
        <polygon id="path-1" points="0.000151562723 116.200265 116.366322 116.200265 116.366322 0.335521978 0.000151562723 0.335521978"></polygon>
        <polygon id="path-3" points="0 116.367775 116.366322 116.367775 116.366322 0.503031451 0 0.503031451"></polygon>
    </defs>
    <g id="Rug-builder" stroke="none" stroke-width="1" fill="none" fill-rule="evenodd">
        <g id="rug-builder-master" transform="translate(-3101.000000, -687.000000)">
            <g id="double-border-icon" transform="translate(3101.000000, 687.000000)">
                <g id="Group-3" transform="translate(0.000000, 0.167509)">
                    <mask id="mask-2" fill="white">
                        <use xlink:href="#path-1"></use>
                    </mask>
                    <g id="Clip-2"></g>
                    <path d="M116.366474,58.267793 C116.366474,90.2631085 90.3168834,116.200416 58.1830601,116.200416 C26.049742,116.200416 0.000151562723,90.2631085 0.000151562723,58.267793 C0.000151562723,26.2724775 26.049742,0.335169856 58.1830601,0.335169856 C90.3168834,0.335169856 116.366474,26.2724775 116.366474,58.267793" id="Fill-1" fill="#383838" mask="url(#mask-2)"></path>
                </g>
                <mask id="mask-4" fill="white">
                    <use xlink:href="#path-3"></use>
                </mask>
                <g id="Clip-5"></g>
                <path d="M21.1707864,88.8564816 L93.3555644,88.8564816 L93.3555644,33.7327861 L21.1707864,33.7327861 L21.1707864,88.8564816 Z M18.7048609,91.3318994 L95.8209847,91.3318994 L95.8209847,31.2568653 L18.7048609,31.2568653 L18.7048609,91.3318994 Z" id="Fill-4" fill="#FEFEFE" mask="url(#mask-4)"></path>
                <path d="M88.0366728,38.8092286 C88.0366728,38.8092286 89.2996954,34.784977 93.5939726,33.7789141" id="Stroke-6" stroke="#FEFEFE" stroke-width="2" mask="url(#mask-4)"></path>
                <path d="M26.1485609,38.8092286 C26.1485609,38.8092286 24.8855382,34.784977 20.591261,33.7789141" id="Stroke-7" stroke="#FEFEFE" stroke-width="2" mask="url(#mask-4)"></path>
                <path d="M88.2892773,83.8305435 C88.2892773,83.8305435 92.3309499,85.0881221 93.3413681,89.3638894" id="Stroke-8" stroke="#FEFEFE" stroke-width="2" mask="url(#mask-4)"></path>
                <path d="M25.8959563,83.8305435 C25.8959563,83.8305435 21.8542837,85.0881221 20.8438656,89.3638894" id="Stroke-9" stroke="#FEFEFE" stroke-width="2" mask="url(#mask-4)"></path>
                <path d="M86.980129,81.6866234 C85.4943091,78.8037502 83.4345717,77.8228389 82.2927992,77.4928502 L82.2927992,44.2927744 C82.4009139,43.9155009 83.2501704,41.4174467 86.980129,40.2655046 L86.980129,81.6866234 Z M27.5584478,82.5634073 C27.8736983,81.6358173 28.8856321,79.647837 31.9487147,78.4410645 L82.2927992,78.4410645 L82.2927992,78.4128948 C83.3648529,78.7821198 85.1639024,79.7977403 86.4249042,82.5634073 L27.5584478,82.5634073 Z M27.3785934,40.4425717 C30.864536,41.7293262 31.5213078,44.2183258 31.5511152,44.3380473 L31.6718601,44.3093745 L31.6718601,77.6045232 C29.3574974,78.5019313 28.078308,79.8128313 27.3785934,80.9139671 L27.3785934,40.4425717 Z M81.5198293,44.6584783 L81.5198293,77.584905 L32.6519657,77.584905 L32.5549656,44.6745753 L32.6519657,44.6745753 L32.6519657,44.6584783 L81.5198293,44.6584783 Z M85.9995182,39.6729336 C82.8950084,40.8706515 81.835585,42.9733229 81.5294283,43.7952763 L32.3018559,43.7952763 C31.9962044,42.9733229 30.9362757,40.8706515 27.8317659,39.6729336 L85.9995182,39.6729336 Z M25.3870592,84.5458542 L88.9716632,84.5458542 L88.9716632,37.6899836 L25.3870592,37.6899836 L25.3870592,84.5458542 Z" id="Fill-10" fill="#FEFEFE" mask="url(#mask-4)"></path>
            </g>
        </g>
    </g>
</svg>