<?xml version="1.0" encoding="UTF-8"?>
<svg width="16px" height="15px" viewBox="0 0 16 15" version="1.1" xmlns="http://www.w3.org/2000/svg" xmlns:xlink="http://www.w3.org/1999/xlink">
    <!-- Generator: sketchtool 51.2 (57519) - http://www.bohemiancoding.com/sketch -->
    <title>E5E5F207-DF18-444D-8C7A-9E583DF22A8D</title>
    <desc>Created with sketchtool.</desc>
    <defs></defs>
    <g id="--Rug-Builder" stroke="none" stroke-width="1" fill="none" fill-rule="evenodd">
        <g id="rug-builder-2---select-part" transform="translate(-1189.000000, -181.000000)" stroke="#2D2D2D">
            <g id="Group" transform="translate(-6.000000, 76.000000)">
                <g id="Group-14" transform="translate(1170.000000, 22.000000)">
                    <g id="Group-8" transform="translate(0.000000, 61.000000)">
                        <g id="Group-20">
                            <g id="Group-10">
                                <g id="Group-3" transform="translate(26.000000, 23.000000)">
                                    <g id="edit-icon">
                                        <polyline id="Path-13" points="6.67792279 1 0 1 0 13 12 13 12 9.20199261"></polyline>
                                        <g id="61456" transform="translate(4.000000, 0.000000)" fill-rule="nonzero" stroke-linecap="round" stroke-linejoin="bevel">
                                            <path d="M6.12192808,1.11109292 L8.88898245,3.87768459 L2.96767329,9.79805864 L0.202066489,7.03134567 L6.12192808,1.11109292 Z M10.0770568,0.611819612 C10.6409789,1.0462005 10.6409789,1.81584767 10.0770568,2.25025876 L8.6384317,3.35841047 L5.54428052,0.975031361 L6.05851863,0.578921317 L7.03093021,-0.170112167 C7.60400151,-0.61004587 8.49080617,-0.61004587 9.06258558,-0.169612612 L10.0770568,0.611819612 Z M-0.481703383,9.59302083 L-0.481664811,9.59284993 L0.265463321,6.2851623 L3.72027479,9.69114816 L2.84345424,9.90062232 L0.42175687,10.4791705 C-0.113989768,10.6075318 -0.603235824,10.1319482 -0.481703383,9.59302083 Z" id="Shape"></path>
                                        </g>
                                    </g>
                                </g>
                            </g>
                        </g>
                    </g>
                </g>
            </g>
        </g>
    </g>
</svg>