<?xml version="1.0" encoding="utf-8"?>
<!-- Generator: Adobe Illustrator 22.1.0, SVG Export Plug-In . SVG Version: 6.00 Build 0)  -->
<svg version="1.1" id="Layer_1" xmlns="http://www.w3.org/2000/svg" xmlns:xlink="http://www.w3.org/1999/xlink" x="0px" y="0px"
	 viewBox="0 0 77 100" style="enable-background:new 0 0 77 100;" xml:space="preserve">
<style type="text/css">
	.st0{fill:#CBCBCB;}
</style>
<g>
	<path d="M71,6v88H6V6H71 M77,0H0v100h77L77,0L77,0z"/>
	<path class="st0" d="M76.2,0.8v98.4H0.8V0.8H76.2 M77,0H0v100h77L77,0L77,0z"/>
	<path class="st0" d="M68.3,8.9v82.2H8.7V8.9H68.3 M69.1,8.1H7.9v83.8h61L69.1,8.1L69.1,8.1z"/>
	<path class="st0" d="M61,16.1v67.7H16V16.1H61 M61.8,15.3H15.2v69.3h46.6V15.3L61.8,15.3z"/>
	<polygon class="st0" points="0.5,1 1,0.5 61.7,61.6 61.1,62.2 	"/>
	<polygon class="st0" points="15.3,38.3 15.8,37.8 76.5,98.9 76,99.5 	"/>
	<polygon class="st0" points="15.2,26.4 15.8,25.8 61.6,72 61.1,72.5 	"/>
	<polygon class="st0" points="15.3,46.6 15.8,46 53.6,84.1 53,84.6 	"/>
	<polygon class="st0" points="15.4,55.9 16,55.3 44.3,83.8 43.7,84.4 	"/>
	<polygon class="st0" points="15.4,65.8 16,65.1 34.4,83.7 33.8,84.3 	"/>
	<polygon class="st0" points="15.4,75.1 16,74.5 25.2,83.8 24.6,84.4 	"/>
	<polygon class="st0" points="23.4,16 24,15.4 61.7,53.5 61.1,54 	"/>
	<polygon class="st0" points="33,15.9 33.6,15.4 61.7,43.7 61.1,44.2 	"/>
	<polygon class="st0" points="43.4,16.1 44,15.5 61.6,33.2 61.1,33.8 	"/>
	<polygon class="st0" points="51.7,16 52.3,15.4 61.6,24.8 61,25.4 	"/>
	<polygon class="st0" points="0.5,99 8.1,91.1 8.7,91.6 1.1,99.5 	"/>
	<polygon class="st0" points="68.3,8.5 76,0.5 76.5,1.1 68.8,9.1 	"/>
</g>
</svg>
