<?xml version="1.0" encoding="UTF-8" standalone="no"?>
<svg width="34px" height="46px" viewBox="0 0 34 46" version="1.1" xmlns="http://www.w3.org/2000/svg" xmlns:xlink="http://www.w3.org/1999/xlink">
    <!-- Generator: Sketch 41 (35326) - http://www.bohemiancoding.com/sketch -->
    <title>Page 1</title>
    <desc>Created with Sketch.</desc>
    <defs>
        <polygon id="path-1" points="45.8071538 33.9916922 45.8071538 0 8.84615383e-05 0 8.84615383e-05 33.9916922"></polygon>
    </defs>
    <g id="symbols" stroke="none" stroke-width="1" fill="none" fill-rule="evenodd">
        <g id="Artboard" transform="translate(-694.000000, -393.000000)">
            <g id="Page-1" transform="translate(711.000000, 416.000000) rotate(-270.000000) translate(-711.000000, -416.000000) translate(688.000000, 399.000000)">
                <mask id="mask-2" fill="white">
                    <use xlink:href="#path-1"></use>
                </mask>
                <g id="Clip-2" transform="translate(22.903621, 16.995846) rotate(-360.000000) translate(-22.903621, -16.995846) "></g>
                <path d="M40.9958192,28.87484 L40.9958192,4.7898313 C41.0733705,4.5166487 41.6855244,2.70400522 44.372691,1.86849217 L44.372691,31.9173965 C43.3020115,29.825953 41.8182167,29.1143183 40.9958192,28.87484 L40.9958192,28.87484 Z M4.72717821,29.5628226 L40.9958192,29.5628226 L40.9958192,29.5424226 C41.7680885,29.8102835 43.0643449,30.5473443 43.97255,32.5533443 L1.56438333,32.5533443 C1.79143462,31.88044 2.52065256,30.4382487 4.72717821,29.5628226 L4.72717821,29.5628226 Z M4.44056282,4.82294435 L4.52755,4.8022487 L4.52755,28.9561443 C2.86063974,29.6071704 1.93887051,30.5579878 1.43463974,31.3565443 L1.43463974,1.99680522 C3.94606282,2.93047478 4.41933205,4.73602261 4.44056282,4.82294435 L4.44056282,4.82294435 Z M40.4458833,4.42913565 L24.5248705,4.42913565 L24.4818192,4.38567478 L24.4384731,4.42913565 L4.98165256,4.42913565 C4.76138333,3.83280522 3.99796026,2.30724 1.76135769,1.43861391 L43.6661782,1.43861391 C41.4295756,2.30724 40.6661526,3.83280522 40.4458833,4.42913565 L40.4458833,4.42913565 Z M40.3594859,25.1247878 L40.3594859,28.9245096 L36.5697936,28.9245096 L40.3594859,25.1247878 Z M40.3594859,20.5046313 L40.3594859,24.3229791 L40.3093577,24.2727183 L35.6698449,28.9245096 L31.9618321,28.9245096 L40.3594859,20.5046313 Z M40.3594859,14.9803704 L40.3594859,19.6023009 L31.0618833,28.9245096 L26.4521526,28.9245096 L40.3594859,14.9803704 Z M40.3594859,9.95842261 L40.3594859,14.0783357 L25.5522038,28.9245096 L21.4431654,28.9245096 L40.3594859,9.95842261 Z M39.8284218,5.06715304 L40.3594859,5.06715304 L40.3594859,9.15661391 L40.3093577,9.10635304 L20.5747679,28.8931704 L20.6063192,28.9245096 L16.0340372,28.9245096 L39.8284218,5.06715304 Z M34.5189603,5.06715304 L38.9284731,5.06715304 L15.1340885,28.9245096 L10.7245756,28.9245096 L34.5189603,5.06715304 Z M29.4082423,5.06715304 L33.6190115,5.06715304 L9.82492179,28.9245096 L5.61385769,28.9245096 L29.4082423,5.06715304 Z M5.16388333,8.88934435 L5.16388333,5.06715304 L8.97628077,5.06715304 L5.16388333,8.88934435 Z M5.16388333,13.5095009 L5.16388333,9.79167478 L9.87593462,5.06715304 L13.5839474,5.06715304 L5.16388333,13.5095009 Z M5.16388333,18.4312226 L5.16388333,14.4118313 L14.4838962,5.06715304 L18.4926782,5.06715304 L5.16388333,18.4312226 Z M5.16388333,23.75444 L5.16388333,19.333553 L19.3923321,5.06715304 L23.8021397,5.06715304 L5.16388333,23.75444 Z M28.5082936,5.06715304 L5.16388333,28.47364 L5.16388333,24.6564748 L24.7020885,5.06715304 L28.5082936,5.06715304 Z M8.84615383e-05,33.9916922 L45.8072423,33.9916922 L45.8072423,-2.95652171e-05 L8.84615383e-05,-2.95652171e-05 L8.84615383e-05,33.9916922 Z" id="Fill-1" fill="#1C1D1C" mask="url(#mask-2)"></path>
            </g>
        </g>
    </g>
</svg>