<?xml version="1.0" encoding="UTF-8" standalone="no"?>
<svg width="66px" height="41px" viewBox="0 0 66 41" version="1.1" xmlns="http://www.w3.org/2000/svg" xmlns:xlink="http://www.w3.org/1999/xlink">
    <!-- Generator: Sketch 41 (35326) - http://www.bohemiancoding.com/sketch -->
    <title>Group 3</title>
    <desc>Created with Sketch.</desc>
    <defs>
        <polygon id="path-1" points="65.2948031 39.7027117 65.2948031 0.148404543 0.130715111 0.148404543 0.130715111 39.7027117"></polygon>
    </defs>
    <g id="symbols" stroke="none" stroke-width="1" fill="none" fill-rule="evenodd">
        <g id="Artboard" transform="translate(-1015.000000, -396.000000)">
            <g id="Group-3" transform="translate(1048.060577, 416.546875) rotate(-360.000000) translate(-1048.060577, -416.546875) translate(1015.060577, 396.546875)">
                <mask id="mask-2" fill="white">
                    <use xlink:href="#path-1"></use>
                </mask>
                <g id="Clip-2"></g>
                <path d="M59.1139118,33.8121929 L59.1139118,5.32737363 L58.9610828,5.32737363 C59.4211908,4.57789574 60.6160357,3.21592878 63.4537925,2.47507093 L63.4537925,37.4207297 C62.1496516,35.1897691 60.3596998,34.225955 59.1139118,33.8121929 L59.1139118,33.8121929 Z M6.81096355,34.523696 L58.6155967,34.523696 C59.7150393,34.847996 61.4927185,35.6894987 62.7567996,37.8503341 L2.27171054,37.8503341 C2.64845719,37.0356234 3.74373173,35.4912377 6.81096355,34.523696 L6.81096355,34.523696 Z M6.47659221,5.86041852 L6.5972345,5.82407455 L6.5972345,12.7224396 L6.59167708,12.7270991 L6.5972345,12.7338553 L6.5972345,33.7262254 C3.99890985,34.5409361 2.65702488,35.7724375 1.9718415,36.7467354 L1.9718415,2.5610384 C5.74254987,3.64297042 6.46895076,5.83572326 6.47659221,5.86041852 L6.47659221,5.86041852 Z M35.4594552,5.32737363 L35.4052704,5.2591122 L35.3205198,5.32737363 L24.6465716,5.32737363 L24.6398564,5.31875359 L24.6289731,5.32737363 L15.4610852,5.32737363 L15.4578434,5.32341307 L15.4527491,5.32737363 L7.14579801,5.32737363 C6.83643505,4.65803886 5.81479631,3.01953156 2.94091633,2.00073553 L62.1996684,2.00073553 C59.3540386,3.01836668 58.3416623,4.65640804 58.0341518,5.32737363 L35.4594552,5.32737363 Z M58.2928033,14.9445472 L58.2928033,22.2562083 L44.1269439,33.6973366 L34.9734127,33.6973366 L58.2928033,14.9445472 Z M57.4318666,6.15373299 L58.2928033,6.15373299 L58.2928033,13.8870774 L33.6583886,33.6973366 L23.2115998,33.6973366 L57.4318666,6.15373299 Z M46.3167983,6.15373299 L56.1173056,6.15373299 L21.8970388,33.6973366 L12.0965315,33.6973366 L46.3167983,6.15373299 Z M7.47113854,33.6973366 L7.41996398,33.4920864 C7.4192693,33.4920864 7.41880618,33.4923193 7.41834307,33.4925523 L7.41834307,28.8435529 L35.6083477,6.15373299 L45.0022373,6.15373299 L10.7819705,33.6973366 L7.47113854,33.6973366 Z M7.41834307,12.0367966 L7.41834307,6.15373299 L14.4632971,6.15373299 L7.41834307,12.0367966 Z M34.2937867,6.15373299 L7.41834307,27.7856172 L7.41834307,20.2549603 L24.9170326,6.15373299 L34.2937867,6.15373299 Z M23.6036294,6.15373299 L7.41834307,19.1965586 L7.41834307,13.1103416 L15.7489132,6.15373299 L23.6036294,6.15373299 Z M57.6583314,33.5021043 L57.6486059,33.6973366 L45.4387262,33.6973366 L58.2928033,23.3155419 L58.2928033,33.5924982 C57.9306449,33.5191114 57.6960755,33.503968 57.6583314,33.5021043 L57.6583314,33.5021043 Z M0.130715111,39.7027117 L65.2949189,39.7027117 L65.2949189,0.148357948 L0.130715111,0.148357948 L0.130715111,39.7027117 Z" id="Fill-1" fill="#404041" mask="url(#mask-2)"></path>
            </g>
        </g>
    </g>
</svg>