<?xml version="1.0" encoding="UTF-8" standalone="no"?>
<svg width="90px" height="39px" viewBox="0 0 90 39" version="1.1" xmlns="http://www.w3.org/2000/svg" xmlns:xlink="http://www.w3.org/1999/xlink">
    <!-- Generator: Sketch 41 (35326) - http://www.bohemiancoding.com/sketch -->
    <title>Group 6</title>
    <desc>Created with Sketch.</desc>
    <defs>
        <polygon id="path-1" points="9.11986608e-05 38.1611682 89.1187382 38.1611682 89.1187382 0.211567334 9.11986608e-05 0.211567334 9.11986608e-05 38.1611682"></polygon>
    </defs>
    <g id="symbols" stroke="none" stroke-width="1" fill="none" fill-rule="evenodd">
        <g id="Artboard" transform="translate(-768.000000, -397.000000)">
            <g id="Group-6" transform="translate(813.612861, 416.810780) rotate(-360.000000) translate(-813.612861, -416.810780) translate(768.612861, 397.310780)">
                <mask id="mask-2" fill="white">
                    <use xlink:href="#path-1"></use>
                </mask>
                <g id="Clip-5"></g>
                <path d="M33.8158705,35.9517729 L4.68838633,22.9006533 L11.2651777,19.6344662 L11.5622574,19.5211184 L34.7629686,28.8587929 L34.2969434,35.7178085 L33.8158705,35.9517729 Z M73.0312945,10.4446663 L74.0089441,7.85311412 L76.6995326,8.7094689 L73.0312945,10.4446663 Z M35.6382477,29.1138821 L72.5342618,11.6621893 L72.5673213,11.6744554 L72.5803171,11.6403829 L77.9412023,9.10470957 L78.1826508,9.18148621 L84.1155796,11.4809237 L35.2201019,35.2685062 L35.6382477,29.1138821 Z M47.7229822,22.4156885 L41.5741405,25.3241147 L49.2943351,5.13708383 L55.6308181,2.72157274 L47.6192437,22.3736658 L47.7229822,22.4156885 Z M55.837383,18.577311 L48.7640149,21.9230005 L56.7402498,2.3579059 L61.4490646,3.8564132 L55.7493763,18.5434657 L55.837383,18.577311 Z M63.3097453,15.0430871 L56.8829757,18.0828058 L62.2988081,4.12672147 L67.1722365,5.67770038 L63.3097453,15.0430871 Z M64.5058157,14.4772569 L68.023348,5.94846295 L73.1592006,7.58280584 L71.8730715,10.9925516 L64.5058157,14.4772569 Z M34.1797531,10.8989659 L41.0417683,8.28310871 L33.3245377,27.3189443 L34.1503416,27.6512645 L42.1778757,7.84993402 L48.1787475,5.56253542 L40.4259494,25.834066 L40.4647088,25.8488307 L35.4984858,28.1977869 L28.2028209,25.2614213 L34.1797531,10.8989659 Z M26.7874177,13.7172136 L33.033842,11.335775 L27.3770171,24.9291011 L22.8809231,23.1193986 L26.7874177,13.7172136 Z M19.6520345,16.4371055 L25.6419626,14.1537956 L22.0551192,22.7870784 L17.5494494,20.9737415 L19.6520345,16.4371055 Z M12.7836354,19.0554613 L18.460296,16.8916322 L16.7225056,20.640967 L12.7836354,19.0554613 Z M78.8819165,7.30568307 L78.7040791,7.76134559 L78.6646357,7.77997188 L78.8233214,7.28501244 L56.5956999,0.211567334 L10.5020729,17.7831952 L10.8235482,18.619788 L10.8183043,18.6325084 L10.4129262,17.822265 L9.11986608e-05,22.9937847 L33.850754,38.1612591 L89.1187382,11.2730817 L78.8819165,7.30568307 Z" id="Fill-4" fill="#404041" mask="url(#mask-2)"></path>
            </g>
        </g>
    </g>
</svg>