<?xml version="1.0" encoding="UTF-8" standalone="no"?>
<svg width="34px" height="42px" viewBox="0 0 34 42" version="1.1" xmlns="http://www.w3.org/2000/svg" xmlns:xlink="http://www.w3.org/1999/xlink">
    <!-- Generator: Sketch 41 (35326) - http://www.bohemiancoding.com/sketch -->
    <title>Group 2</title>
    <desc>Created with Sketch.</desc>
    <defs>
        <polygon id="path-1" points="13.44375 28.1855172 26.8875 28.1855172 26.8875 0 0 3.63096368e-15 0 28.1855172 13.44375 28.1855172"></polygon>
    </defs>
    <g id="symbols" stroke="none" stroke-width="1" fill="none" fill-rule="evenodd">
        <g id="Artboard" transform="translate(-695.000000, -478.000000)">
            <g id="Group-2" transform="translate(695.000000, 478.000000)">
                <g id="Search" transform="translate(0.000000, 13.000000)">
                    <mask id="mask-2" fill="white">
                        <use xlink:href="#path-1"></use>
                    </mask>
                    <g id="Clip-2"></g>
                    <path d="M16.99221,17.8731811 C12.9641614,20.7301683 7.23752418,19.9447639 4.22637666,16.1232114 C2.76772125,14.2716076 2.1561947,11.9920995 2.50468976,9.70437292 C2.85318483,7.4166464 4.11954719,5.39464789 6.07106182,4.01067059 C7.3723603,3.08774512 8.8503605,2.54505726 10.3575223,2.36178711 C13.5153438,1.97798818 16.7984733,3.17376429 18.8368952,5.76091425 C20.2952619,7.61224414 20.9067884,9.89175227 20.5582934,12.1794788 C20.210087,14.4672053 18.9434359,16.4892038 16.99221,17.8731811 L16.99221,17.8731811 Z M26.8875,26.4107701 L20.017774,18.4203199 C21.610075,16.8006651 22.6450437,14.7635129 22.9859049,12.5252773 C23.4269243,9.62732422 22.6525825,6.73984691 20.8053087,4.39455408 C16.991756,-0.44652481 9.73889771,-1.44121105 4.6375574,2.17778095 C2.16617919,3.93081005 0.562300782,6.49226125 0.121012094,9.39021432 C-0.320276595,12.2879119 0.454065241,15.1753892 2.301339,17.520682 C4.148882,19.8657193 6.84777024,21.3880262 9.90152027,21.8068011 C10.9566822,21.9514177 12.0102286,21.9585719 13.0395432,21.8333738 C14.338639,21.6754708 15.5986946,21.3057531 16.7736694,20.738018 L17.7658286,20.2415692 L24.5954374,28.1855172 L26.8875,26.4107701 Z" id="Fill-1" fill="#1C1D1C" mask="url(#mask-2)"></path>
                </g>
                <g id="Menu---Close" transform="translate(26.721875, 6.721875) rotate(-360.000000) translate(-26.721875, -6.721875) translate(20.000000, 0.000000)" fill="#1C1C1C">
                    <polygon id="Fill-1" transform="translate(6.482208, 6.509792) rotate(-90.000000) translate(-6.482208, -6.509792) " points="-0.0275838632 7.6355494 12.9919996 7.6355494 12.9919996 5.38403405 -0.0275838632 5.38403405"></polygon>
                    <polygon id="Fill-2" points="0 7.67640011 13.0195834 7.67640011 13.0195834 5.28801561 0 5.28801561"></polygon>
                </g>
            </g>
        </g>
    </g>
</svg>