<?xml version="1.0" encoding="UTF-8" standalone="no"?>
<svg width="86px" height="39px" viewBox="0 0 86 39" version="1.1" xmlns="http://www.w3.org/2000/svg" xmlns:xlink="http://www.w3.org/1999/xlink">
    <!-- Generator: Sketch 41 (35326) - http://www.bohemiancoding.com/sketch -->
    <title>Fill 7</title>
    <desc>Created with Sketch.</desc>
    <defs></defs>
    <g id="symbols" stroke="none" stroke-width="1" fill="none" fill-rule="evenodd">
        <g id="Artboard" transform="translate(-887.000000, -397.000000)" fill="#404041">
            <path d="M900.749082,399.855171 L904.202319,403.251288 L896.93903,428.875604 L890.730453,432.51568 L900.749082,399.855171 Z M969.802884,432.563381 L963.584503,428.879466 L956.875246,403.236751 L959.799987,399.954209 L969.802884,432.563381 Z M900.827741,418.266118 L919.393052,403.558849 L927.363359,403.558849 L898.519959,426.40853 L900.827741,418.266118 Z M903.415503,409.13674 L903.511718,409.27462 L910.865522,403.558849 L917.987453,403.558849 L901.234715,416.830077 L903.415503,409.13674 Z M904.996432,403.558849 L909.442366,403.558849 L903.74017,407.990769 L904.996432,403.558849 Z M956.222263,402.669103 L947.667373,402.669103 L947.61539,402.596188 L947.523279,402.669103 L904.84869,402.669103 L901.775067,399.646421 L958.915588,399.646421 L956.222263,402.669103 Z M947.805767,403.558849 L956.083869,403.558849 L956.128557,403.729893 L924.600952,428.705469 L924.619648,428.731591 L916.02919,428.731591 L947.805767,403.558849 Z M938.291011,403.558849 L946.400168,403.558849 L914.65665,428.705469 L914.675346,428.731591 L906.514433,428.731591 L938.291011,403.558849 Z M898.114581,427.838665 L898.116405,427.841391 L928.768959,403.558849 L936.885411,403.558849 L905.108834,428.731591 L897.861277,428.731591 L898.114581,427.838665 Z M934.848261,428.731591 L925.973492,428.731591 L956.370005,404.652348 L957.884587,410.441715 L934.829566,428.705469 L934.848261,428.731591 Z M945.079611,428.731591 L936.202333,428.731591 L958.125807,411.363944 L959.672537,417.275518 L945.060231,428.704106 L945.079611,428.731591 Z M955.691487,428.731591 L946.441663,428.731591 L959.913073,418.195474 L961.493318,424.235161 L955.670739,428.701607 L955.691487,428.731591 Z M962.669781,428.731591 L957.066535,428.731591 L961.73317,425.151937 L962.669781,428.731591 Z M897.404599,429.621337 L963.113234,429.621337 L969.081958,433.157605 L891.373176,433.157605 L897.404599,429.621337 Z M961.154743,397.546875 L899.364002,397.546875 L887.796592,435.256924 L972.722153,435.256924 L961.154743,397.546875 Z" id="Fill-7" transform="translate(930.259373, 416.401899) rotate(-360.000000) translate(-930.259373, -416.401899) "></path>
        </g>
    </g>
</svg>