<?xml version="1.0" encoding="UTF-8" standalone="no"?>
<svg width="34px" height="37px" viewBox="0 0 34 37" version="1.1" xmlns="http://www.w3.org/2000/svg" xmlns:xlink="http://www.w3.org/1999/xlink">
    <!-- Generator: Sketch 41 (35326) - http://www.bohemiancoding.com/sketch -->
    <title>Group</title>
    <desc>Created with Sketch.</desc>
    <defs>
        <polygon id="path-1" points="13.5239024 28.68 27.0478049 28.68 27.0478049 0 0 3.6946648e-15 0 28.68 13.5239024 28.68"></polygon>
    </defs>
    <g id="symbols" stroke="none" stroke-width="1" fill="none" fill-rule="evenodd">
        <g id="Artboard" transform="translate(-768.000000, -483.000000)">
            <g id="Group" transform="translate(768.000000, 483.000000)">
                <g id="Search-Copy" transform="translate(0.000000, 8.000000)">
                    <mask id="mask-2" fill="white">
                        <use xlink:href="#path-1"></use>
                    </mask>
                    <g id="Clip-2"></g>
                    <path d="M17.0935186,18.1867457 C13.0414545,21.0938555 7.28067473,20.2946721 4.25157457,16.4060748 C2.78422257,14.5219867 2.16905006,12.2024872 2.51962287,9.87462508 C2.87019569,7.546763 4.14410817,5.48929084 6.10725785,4.08103324 C7.41631475,3.14191608 8.90312688,2.58970739 10.4192744,2.40322197 C13.5959231,2.01268973 16.8986268,3.22944437 18.9492019,5.86198292 C20.4162634,7.74579228 21.031436,10.0652918 20.6808631,12.3931539 C20.3305808,14.7210159 19.0563778,16.7784881 17.0935186,18.1867457 L17.0935186,18.1867457 Z M27.0478049,26.8741169 L20.1371212,18.7434834 C21.7389156,17.0954136 22.7800548,15.0225219 23.1229482,12.745019 C23.5665971,9.79622464 22.7876385,6.85808984 20.9293512,4.47165152 C17.0930618,-0.454358579 9.7969616,-1.46649545 4.66520679,2.21598764 C2.17909408,3.99977163 0.565653253,6.60616057 0.121733575,9.55495492 C-0.322186103,12.5034893 0.456772405,15.4416241 2.31505972,17.8280624 C4.17361788,20.2142407 6.88859705,21.7632547 9.96055372,22.1893766 C11.0220066,22.3365303 12.0818343,22.34381 13.1172858,22.2164154 C14.4241268,22.0557423 15.6916949,21.6795383 16.8736751,21.1018429 L17.8717495,20.5966844 L24.7420769,28.68 L27.0478049,26.8741169 Z" id="Fill-1" fill="#1C1D1C" mask="url(#mask-2)"></path>
                </g>
                <g id="Menu---Close-Copy" transform="translate(26.721875, 1.222159) rotate(-360.000000) translate(-26.721875, -1.222159) translate(20.000000, 0.000000)" fill="#1C1C1C">
                    <polygon id="Fill-2" points="0 2.43105385 13.2905959 2.43105385 13.2905959 0.148375221 0 0.148375221"></polygon>
                </g>
            </g>
        </g>
    </g>
</svg>